
<svg width="17px" height="24px" viewBox="0 0 17 24" version="1.1" xmlns="http://www.w3.org/2000/svg" xmlns:xlink="http://www.w3.org/1999/xlink">
    <g id="Page-1" stroke="none" stroke-width="1" fill="none" fill-rule="evenodd">
        <g id="main" transform="translate(-712.000000, -500.000000)" fill="#FFFFFF" fill-rule="nonzero">
            <g id="Group-6" transform="translate(712.000000, 500.000000)">
                <path d="M8.5,0 C3.83180939,0 0.0340939227,3.8503125 0.0340939227,8.58276563 L0.0340939227,15.4174687 C0.0340939227,20.1499219 3.83180939,24 8.5,24 C13.1679088,24 16.9659061,20.1615938 16.9659061,15.4437188 L16.9659061,8.58276563 C16.9659061,3.8503125 13.1679088,0 8.5,0 Z M15.3735414,15.4437187 C15.3735414,19.2853125 12.2902486,22.4106094 8.5,22.4106094 C4.70998619,22.4106094 1.62645856,19.2734063 1.62645856,15.4172344 L1.62645856,8.58276562 C1.62645856,4.72659375 4.70998619,1.58939062 8.5,1.58939062 C12.2902956,1.58939062 15.3735414,4.72659375 15.3735414,8.58276562 L15.3735414,15.4437187 Z" id="Shape"></path>
                <path d="M8.5,6.56953125 C8.06025414,6.56953125 7.70381768,6.9253125 7.70381768,7.36425 L7.70381768,10.1457188 C7.70381768,10.5846563 8.06025414,10.9404375 8.5,10.9404375 C8.93974586,10.9404375 9.29618232,10.5846563 9.29618232,10.1457188 L9.29618232,7.36425 C9.29618232,6.9253125 8.93974586,6.56953125 8.5,6.56953125 Z" id="Shape"></path>
            </g>
        </g>
    </g>
</svg>